<svg xmlns="http://www.w3.org/2000/svg" viewBox="0 0 1200 503.15"><defs><style>.a{fill:#1ce783;}</style></defs><path class="a" d="M266.83,201.64q29.81,24.23,29.82,75.65V449.46H202V290a26.76,26.76,0,0,0-26.09-26.09H120.75a23.79,23.79,0,0,0-17.89,7.83A25.66,25.66,0,0,0,95.4,290v159.5H0V53.69H95.4V182.63c1.5-.49,5-1.49,10.44-3s12.67-2.24,21.61-2.24h61.12Q237,177.41,266.83,201.64Zm300.38-24.23h95.4v167q0,47-25.71,76t-69.69,29.07H473.29q-49.18,0-78.63-27.2t-29.44-77.89v-167h95.4V336.92A25.44,25.44,0,0,0,486,362.26h55.16a25.65,25.65,0,0,0,18.26-7.45,23.83,23.83,0,0,0,7.83-17.89ZM734.91,53.69h95.4V449.46h-95.4ZM1200,177.41v167q0,47-25.71,76t-69.69,29.07h-93.17q-49.95,0-79.38-27.2t-29.44-77.89v-167H998V336.92a25.45,25.45,0,0,0,25.34,25.34h55.9a25.45,25.45,0,0,0,25.35-25.34V177.41Z"/></svg>